<svg width="512" height="512" viewBox="0 0 512 512" fill="none" xmlns="http://www.w3.org/2000/svg">
<g clip-path="url(#clip0_302_25)">
<path d="M512 160.141C512 154.03 512 147.914 512 141.792C512 136.647 511.91 131.494 511.772 126.325C511.471 115.099 510.803 103.792 508.809 92.6965C506.905 81.5712 503.355 70.7915 498.275 60.7122C487.941 40.4782 471.472 24.0313 451.225 13.725C441.154 8.63567 430.384 5.06925 419.266 3.14225C408.211 1.18852 396.856 0.529135 385.63 0.227934C380.485 0.0895451 375.333 0.0325622 370.164 0C364.042 0 357.926 0 351.815 0H160.136C154.025 0 147.909 0 141.788 0C136.643 0 131.49 0.0895451 126.321 0.227934C115.161 0.537275 103.805 1.18852 92.7098 3.19924C81.5885 5.11243 70.8163 8.67952 60.751 13.782C40.5069 24.0926 24.0453 40.5461 13.7245 60.7855C8.64467 70.8676 5.09455 81.6499 3.19099 92.7779C1.19662 103.833 0.529121 115.156 0.22793 126.358C0.0895453 131.511 0.0325612 136.655 0 141.825C0 147.93 0 154.041 0 160.157V351.835C0 357.945 0 364.062 0 370.183C0 375.328 0.0895453 380.481 0.22793 385.651C0.529121 396.876 1.19662 408.184 3.19099 419.271C5.09455 430.399 8.64467 441.181 13.7245 451.263C24.0481 471.503 40.5086 487.958 60.751 498.275C70.8244 503.348 81.5945 506.898 92.7098 508.809C103.805 510.803 115.12 511.471 126.345 511.772C131.49 511.91 136.643 511.967 141.812 512C147.934 512 154.022 512 160.16 512H351.823C357.934 512 364.05 512 370.172 512C375.316 512 380.469 511.91 385.638 511.772C396.864 511.471 408.187 510.803 419.274 508.809C430.392 506.908 441.163 503.357 451.233 498.275C471.475 487.958 487.936 471.503 498.259 451.263C503.338 441.18 506.891 430.398 508.801 419.271C510.787 408.184 511.455 396.86 511.756 385.651C511.894 380.498 511.951 375.353 511.984 370.183C511.984 364.062 511.984 357.973 511.984 351.835V160.141H512Z" fill="url(#paint0_linear_302_25)"/>
<path d="M361.95 78.1981C360.713 78.312 349.74 80.2658 348.396 80.5344L196.173 111.241H196.116C192.65 111.854 189.391 113.32 186.632 115.506C183.735 117.948 182.123 121.384 181.512 125.389C181.269 127.096 181.155 128.818 181.17 130.542V321.031C181.17 325.484 180.812 329.806 177.8 333.486C174.788 337.165 171.06 338.281 166.689 339.184L156.749 341.187C144.181 343.718 136 345.436 128.592 348.31C121.502 351.053 116.203 354.554 111.978 358.99C104.674 366.845 100.784 377.277 101.163 387.997C101.541 398.717 106.157 408.849 113.997 416.169C119.167 420.968 125.561 424.247 132.475 425.645C140.054 427.167 148.129 426.638 159.932 424.253C166.189 423.093 172.201 420.874 177.711 417.692C183.26 414.432 188.041 410.015 191.728 404.74C195.376 399.449 197.91 393.473 199.177 387.173C200.427 380.971 201.005 374.653 200.902 368.327V203.074C200.902 194.225 203.401 191.889 210.549 190.155C210.549 190.155 337.041 164.643 342.951 163.487C351.18 161.907 355.063 164.301 355.063 172.889V285.693C355.063 290.162 355.063 294.647 351.978 298.376C348.893 302.104 345.238 303.17 340.867 304.074L330.927 306.077C318.359 308.608 310.178 310.326 302.77 313.2C295.688 315.951 290.381 319.443 286.156 323.888C282.453 327.732 279.562 332.282 277.654 337.266C275.745 342.25 274.859 347.568 275.047 352.902C275.236 358.235 276.495 363.477 278.75 368.314C281.005 373.151 284.21 377.486 288.175 381.059C293.354 385.828 299.748 389.078 306.653 390.453C314.232 391.976 322.307 391.43 334.118 389.053C340.373 387.913 346.386 385.711 351.897 382.541C357.431 379.284 362.201 374.876 365.882 369.614C369.538 364.325 372.08 358.348 373.355 352.046C374.722 345.534 374.779 339.673 374.779 333.185V91.6544C374.836 82.8952 370.188 77.4898 361.95 78.1981Z" fill="white"/>
</g>
<defs>
<linearGradient id="paint0_linear_302_25" x1="255.988" y1="510.03" x2="255.988" y2="11.006" gradientUnits="userSpaceOnUse">
<stop stop-color="#FA233B"/>
<stop offset="1" stop-color="#FB5C74"/>
</linearGradient>
<clipPath id="clip0_302_25">
<rect width="512" height="512" fill="white"/>
</clipPath>
</defs>
</svg>
