<svg version="1.1" xmlns="http://www.w3.org/2000/svg" xmlns:xlink="http://www.w3.org/1999/xlink"
	width="284" height="99" viewBox="0 0 284 99" xml:space="preserve">
<path d="M234.69,0.46c-11.71,0-22.46,4.11-30.9,10.97c-8.43-6.85-19.18-10.97-30.9-10.97c-11.71,0-22.46,4.11-30.9,10.97
	c-8.43-6.85-19.18-10.97-30.9-10.97c-11.71,0-22.46,4.11-30.9,10.97C71.77,4.57,61.02,0.46,49.31,0.46
	C22.22,0.46,0.27,22.42,0.27,49.5s21.96,49.04,49.04,49.04c11.71,0,22.46-4.11,30.9-10.97c8.43,6.85,19.18,10.97,30.9,10.97
	c11.71,0,22.46-4.11,30.9-10.97c8.43,6.85,19.18,10.97,30.9,10.97c11.71,0,22.46-4.11,30.9-10.97c8.43,6.85,19.18,10.97,30.9,10.97
	c27.08,0,49.04-21.96,49.04-49.04S261.78,0.46,234.69,0.46 M203.79,71.54c-4.44-6.21-7.06-13.82-7.06-22.04s2.62-15.82,7.06-22.04
	c4.44,6.21,7.06,13.82,7.06,22.04S208.24,65.32,203.79,71.54z M142,71.54c-4.44-6.21-7.06-13.82-7.06-22.04s2.62-15.83,7.06-22.04
	c4.44,6.21,7.06,13.82,7.06,22.04S146.44,65.32,142,71.54z M80.2,71.54c-4.44-6.21-7.06-13.82-7.06-22.04s2.62-15.83,7.06-22.04
	c4.44,6.21,7.06,13.82,7.06,22.04S84.65,65.32,80.2,71.54z M11.35,49.5c0-20.97,17-37.96,37.96-37.96c8.7,0,16.7,2.93,23.1,7.85
	C65.93,27.7,62.06,38.15,62.06,49.5c0,11.35,3.87,21.8,10.35,30.11c-6.4,4.92-14.41,7.85-23.1,7.85
	C28.34,87.46,11.35,70.46,11.35,49.5z M88,79.61c6.48-8.31,10.35-18.76,10.35-30.11c0-11.35-3.87-21.8-10.35-30.11
	c6.4-4.92,14.41-7.85,23.1-7.85s16.7,2.93,23.1,7.85c-6.48,8.31-10.35,18.76-10.35,30.11c0,11.35,3.87,21.8,10.35,30.11
	c-6.4,4.92-14.41,7.85-23.1,7.85S94.4,84.53,88,79.61z M149.79,79.61c6.48-8.31,10.35-18.76,10.35-30.11
	c0-11.35-3.87-21.8-10.35-30.11c6.4-4.92,14.41-7.85,23.1-7.85c8.7,0,16.7,2.93,23.1,7.85c-6.48,8.31-10.35,18.76-10.35,30.11
	c0,11.35,3.87,21.8,10.35,30.11c-6.4,4.92-14.41,7.85-23.1,7.85S156.19,84.53,149.79,79.61z M234.69,87.46
	c-8.7,0-16.7-2.93-23.1-7.85c6.48-8.31,10.35-18.76,10.35-30.11c0-11.35-3.87-21.8-10.35-30.11c6.4-4.92,14.41-7.85,23.1-7.85
	c20.96,0,37.96,17,37.96,37.96S255.66,87.46,234.69,87.46z"
	fill="#fff"
	/>
</svg>