<svg width="126" height="23" viewBox="0 0 126 23" xmlns="http://www.w3.org/2000/svg">
    <path fill-rule="evenodd" clip-rule="evenodd"
        d="M118.589 4.34115C120.845 4.34115 123.208 4.82943 124.875 5.47619V1.09524C123.188 0.547619 120.845 0 117.804 0C112.016 0 108.093 2.14739 108.093 6.65032C108.093 14.4094 119.275 12.8392 119.275 16.4417C119.275 17.8271 117.961 18.619 115.312 18.619C112.958 18.619 110.158 18.5398 108 17.5238V21.9048C110.158 22.6441 113.292 23 115.646 23C121.63 23 126 21.1996 126 15.6573C126 8.26779 114.75 10.4048 114.75 6.02381C114.75 4.38095 116.529 4.34115 118.589 4.34115ZM95 17H93V23H86V0C86.16 0 91.5613 0.110005 94 0C101.206 0.110005 106 2.41211 106 8C106 14.5536 101.305 16.9997 95 17ZM94 4C93.6521 4.00977 93.3941 3.98779 93 4V13H94C97.5238 13 99 11.9312 99 8C99 5.56508 97.3387 4.00977 94 4ZM75 0H82V23H75V0ZM58 23V0H65V18H72L71 23H58ZM47 0H54V23H47V0ZM36 14H29V23H22V0H29V9H36V0H43V23H36V14ZM9 17H7V23H0V0C0.160008 0 5.56128 0.110005 8 0C15.2058 0.110005 20 2.41211 20 8C20 14.5536 15.3048 16.9997 9 17ZM8 4C7.652 4.00977 7.394 3.98779 7 4V13H8C11.523 13 13 11.9312 13 8C13 5.56508 11.339 4.00977 8 4Z"
        fill="#fff" />
</svg>