<svg version="1.1" xmlns="http://www.w3.org/2000/svg" xmlns:xlink="http://www.w3.org/1999/xlink"
	viewBox="0 0 106.2 80">
	<path
		d="M82.3,26.1c-0.1-0.1-0.2-0.2-0.3-0.4c-0.1-0.2-0.1-0.3-0.1-0.6v-2.9c0-0.8-0.1-1.4-0.3-1.8
		c-0.2-0.5-0.6-0.8-1-1c0.5-0.3,0.9-0.7,1.2-1.2c0.3-0.5,0.4-1.2,0.4-2v-0.8c0-1.4-0.4-2.5-1.2-3.3c-0.8-0.8-2.2-1.1-4-1.1h-5.5
		v15.1h4.2v-5h0.7c0.5,0,0.8,0.1,1,0.3c0.2,0.2,0.3,0.5,0.3,1v2.6c0,0.3,0,0.5,0.1,0.7c0.1,0.2,0.2,0.3,0.3,0.4H82.3z M70.5,22.2
		h-5.3v-1.8h4.9v-3.8h-4.9v-1.8h5.2V11H61v15.1h9.5V22.2z M60.2,15.7c0-1.5-0.4-2.7-1.3-3.5C58,11.4,56.6,11,54.7,11h-5.4v15.1h4.2
		v-4.3h1.2c1.9,0,3.3-0.4,4.2-1.3c0.9-0.9,1.3-2.1,1.3-3.6V15.7z M86.7,21.7L76.3,32.9L65,35.6v-7.5h-4v7.1l-3.7-7.1h-4v10.3
		l-0.9,0.2V28.1H49L48.5,26v-3.8h-0.9l-0.4-1.8h1v-3.8h-1.9l-0.4-1.8h2.6V11h-3.5l-1.2-5L68.4,0l14.4,5.3L86.7,21.7z M76.8,14.6
		h-1.1v2.8h1.1c0.4,0,0.7-0.1,0.9-0.3c0.2-0.2,0.3-0.4,0.3-0.7v-0.8c0-0.3-0.1-0.6-0.3-0.8C77.5,14.7,77.2,14.6,76.8,14.6
		 M57.3,37.4l0.7-0.2L57.3,36V37.4z M54.6,14.6h-1.1V18h1c0.4,0,0.7-0.1,1-0.3c0.2-0.2,0.3-0.5,0.3-1v-1c0-0.4-0.1-0.7-0.3-0.9
		C55.3,14.7,55,14.6,54.6,14.6 M98.3,55.9h-4.7V45.2h-4.5v15.1h9.1V55.9z M88.3,60.3L84,45.2h-4.3l-4.2,15.1h4.3l0.4-1.8h3.3
		l0.4,1.8H88.3z M77.8,45.2h-4.4l-1.7,7.6L70,45.2h-4.4l4,15.1h4.4L77.8,45.2z M65,45.2h-4.4v15.1H65V45.2z M106.2,60l-31.9,7.6
		l-17.9-9.2v-9.3h3v-4H53l-0.6-2.4v-3.3l0.9-0.2v4h4v-4.9l1.1-0.3l2.7,5.2H65v-6.7L87,31.1l13.7,6.9L106.2,60z M81,55h1.7l-0.8-3.5
		L81,55z M22.1,37.1h-1v2.5h1c0.5,0,0.9-0.1,1-0.2c0.2-0.2,0.2-0.4,0.2-0.7V38c0-0.3-0.1-0.5-0.3-0.7C23,37.1,22.7,37.1,22.1,37.1
		 M48.3,55.3c0-0.7-0.1-1.3-0.4-1.8c-0.2-0.5-0.6-0.9-1-1.3c-0.4-0.3-0.8-0.6-1.3-0.8c-0.5-0.2-0.9-0.4-1.4-0.6
		c-0.6-0.2-1.2-0.4-1.7-0.6C42.2,50,42,49.7,42,49.4v-0.2c0-0.3,0.1-0.5,0.2-0.7c0.1-0.2,0.4-0.2,0.7-0.2c0.4,0,0.6,0.1,0.8,0.3
		c0.2,0.2,0.2,0.5,0.2,0.9V50h4.2v-0.7c0-1.5-0.4-2.6-1.3-3.3c-0.9-0.7-2.2-1.1-3.8-1.1c-1.7,0-3.1,0.4-4,1.2s-1.4,1.9-1.4,3.3v0.3
		c0,0.7,0.1,1.3,0.4,1.8c0.2,0.5,0.5,0.9,0.9,1.2c0.4,0.3,0.8,0.6,1.3,0.8c0.5,0.2,0.9,0.4,1.3,0.5c0.4,0.2,0.9,0.3,1.2,0.5
		c0.4,0.1,0.7,0.3,0.9,0.5c0.1,0.1,0.2,0.2,0.3,0.3c0.1,0.1,0.1,0.2,0.1,0.4V56c0,0.3-0.1,0.5-0.2,0.6c-0.1,0.2-0.4,0.2-0.7,0.2
		c-0.4,0-0.7-0.1-0.9-0.3c-0.2-0.2-0.2-0.5-0.2-0.8v-0.9h-4.4v0.9c0,1.1,0.2,1.9,0.5,2.7c0.3,0.7,0.9,1.3,1.7,1.6
		c0.4,0.2,0.9,0.3,1.4,0.4c0.5,0.1,1.1,0.1,1.8,0.1c1.8,0,3.2-0.4,4.1-1.2c0.9-0.8,1.4-2,1.4-3.5V55.3z M36.4,56.4h-5.3v-1.8H36
		v-3.8h-4.9v-1.8h5.2v-3.7h-9.4v15.1h9.5V56.4z M26.7,42.1c0.7-0.7,1.1-1.7,1.1-3.1v-0.7c0-0.8-0.2-1.5-0.5-1.9
		c-0.3-0.5-0.8-0.8-1.4-1.1c0.5-0.3,0.9-0.6,1.2-1.1c0.3-0.5,0.4-1.1,0.4-1.9v-0.6c0-1.2-0.4-2.2-1.2-2.8c-0.8-0.6-2.2-0.9-4-0.9
		h-5.2v15.1h6.1C24.8,43.2,26,42.8,26.7,42.1 M27.8,43.2h4.3l0.4-1.8h3.3l0.4,1.8h4.3l-4.3-15.1H32L27.8,43.2z M28.6,26.1h9.5v-3.9
		h-5.3v-1.8h4.9v-3.8h-4.9v-1.8H38V11h-9.4V26.1z M55.8,60.3l2.7,11.2L22.8,80l-4.7-19.7h3.1v-5.1h4.5v-3.9h-4.5v-2.2H26v-3.9h-9
		v10.4l-4.4-18.6l-7.2,1.7L0,16.4l16.9-4.1v13.7h4.2v-5h0.7c0.5,0,0.8,0.1,1,0.3c0.2,0.2,0.3,0.5,0.3,1v2.6c0,0.3,0,0.5,0.1,0.7
		c0.1,0.2,0.2,0.3,0.3,0.4h4.4c-0.1-0.1-0.2-0.2-0.3-0.4c-0.1-0.2-0.1-0.3-0.1-0.6v-2.9c0-0.8-0.1-1.4-0.3-1.8c-0.2-0.5-0.6-0.8-1-1
		c0.5-0.3,0.9-0.7,1.2-1.2c0.3-0.5,0.4-1.2,0.4-2v-0.8c0-1.4-0.4-2.5-1.2-3.3c-0.8-0.7-2-1.1-3.8-1.1l20.2-4.8l1.1,4.8H39v15.1h8.7
		l0.5,2v5.5h-2.4v-5.5h-4.3v15.1h4.3v-5.5h2.4v5.5h3.6l0.5,2h-3.1v4h3v11.1H55.8z M43.2,16.5h2.2l-0.4-1.8h-1.7V16.5z M43.2,22.2
		h3.5l-0.4-1.8h-3.1V22.2z M23.1,33.5c0.1-0.2,0.2-0.4,0.2-0.7v-0.6c0-0.3-0.1-0.5-0.2-0.7c-0.2-0.1-0.4-0.2-0.8-0.2h-1.1v2.3h1.2
		C22.7,33.8,22.9,33.7,23.1,33.5 M34.2,34.4l-0.8,3.5H35L34.2,34.4z M21.1,17.4v-2.8h1.1c0.4,0,0.7,0.1,0.9,0.3
		c0.2,0.2,0.3,0.4,0.3,0.8v0.8c0,0.3-0.1,0.6-0.3,0.7c-0.2,0.2-0.5,0.3-0.9,0.3H21.1z"
		fill="#fff"
	/>
</svg>