<svg width="88" height="15" fill="none" xmlns="http://www.w3.org/2000/svg">
  <path
    d="M86.396 7.835c.87 0 1.575-.7 1.575-1.564a1.57 1.57 0 00-1.575-1.565c-.87 0-1.574.7-1.574 1.565a1.57 1.57 0 001.574 1.564zM72.178 7.556l2.49 7.022h.537l2.514-6.549 2.258 6.55h.537l2.6-6.95c.536-1.37.927-1.94 1.623-2.668v-.037h-2.283v.036c.342.437.696 1.48.159 2.9l-1.208 3.19-1.148-3.567c-.378-1.176-.28-2.11.025-2.522v-.037h-4.04v.036c.476.474.793 1.007 1.306 2.535L76.12 11.17l-1.208-3.699c-.378-1.104-.256-2.11.036-2.523v-.036h-4.1v.048c.5.534.793 1.128 1.33 2.596zM66.417 5.021c1.745 0 2.514 2.11 2.514 4.67 0 2.583-.769 4.645-2.514 4.645-1.757 0-2.49-2.062-2.49-4.645 0-2.56.757-4.67 2.49-4.67zm0 9.679c2.856 0 5.187-2.34 5.187-5.021 0-2.693-2.355-5.058-5.187-5.058-2.831 0-5.187 2.365-5.187 5.058 0 2.68 2.32 5.021 5.187 5.021zM55.067 14.409h3.441v-.037c-.378-1.006-.451-1.952-.451-3.626V7.3c.378-.448.793-.703 1.11-.703.477 0 1.465.376 1.88.849h.098l.183-2.814c-1.49-.06-2.514 1.431-3.332 2.305h-.025V4.524l-3.38 1.08v.036c.573.691.927 1.455.927 2.814v2.28c0 1.734-.134 2.595-.451 3.626v.049zM47.5 14.409h3.442v-.037c-.378-1.006-.452-1.952-.452-3.626V7.3c.379-.448.794-.703 1.111-.703.476 0 1.465.376 1.88.849h.097l.183-2.814c-1.489-.06-2.514 1.431-3.332 2.305h-.024V4.524l-3.38 1.08v.036c.573.691.927 1.455.927 2.814v2.28c0 1.734-.134 2.595-.452 3.626v.049zM41.507 5.021c1.745 0 2.514 2.11 2.514 4.67 0 2.583-.769 4.645-2.514 4.645-1.757 0-2.49-2.062-2.49-4.645 0-2.56.745-4.67 2.49-4.67zm0 9.679c2.856 0 5.187-2.34 5.187-5.021 0-2.693-2.355-5.058-5.187-5.058-2.831 0-5.187 2.365-5.187 5.058 0 2.68 2.32 5.021 5.187 5.021zM24.275 14.409v-.037c-.378-1.006-.452-1.952-.452-3.626v-3.76c.452-.703 1.123-1.043 1.819-1.043 1.013 0 1.33.752 1.33 1.637v3.19c0 1.613-.073 2.596-.452 3.602v.037h3.442v-.037c-.378-1.006-.476-1.928-.476-3.638V6.986a2.205 2.205 0 011.867-1.043c1.014 0 1.306.752 1.306 1.637v3.19c0 1.613-.073 2.596-.451 3.602v.037h3.442v-.037c-.379-1.006-.452-1.928-.452-3.638V7.265c0-1.65-.915-2.632-2.575-2.632-1.428 0-2.441.813-3.125 1.856h-.036c-.232-1.177-1.086-1.856-2.514-1.856-1.428 0-2.454.813-3.113 1.856l-.073-.024V4.524l-3.38 1.08v.036c.573.691.927 1.455.927 2.814v2.28c0 1.734-.134 2.595-.451 3.626v.037h3.417v.012zM14.829 5.021c1.745 0 2.514 2.11 2.514 4.67 0 2.583-.77 4.645-2.514 4.645-1.758 0-2.49-2.062-2.49-4.645-.012-2.56.744-4.67 2.49-4.67zm0 9.679c2.855 0 5.186-2.34 5.186-5.021 0-2.693-2.355-5.058-5.186-5.058-2.832 0-5.2 2.365-5.2 5.058 0 2.68 2.32 5.021 5.2 5.021z"
    fill="#fff"></path>
  <path
    d="M8.739 14.397v-.037c-.61-1.273-.794-2.061-.794-3.796V.352l1.343.073c.952.109 2.392 2 3.441 3.505l.306-.061L12.338 0H.708L0 3.869l.305.06C1.355 2.427 2.783.535 3.722.426l1.38-.073v10.212c0 1.735-.196 2.523-.818 3.796v.037h4.455z"
    fill="#fff"></path>
</svg>