<svg width="128" height="128" viewBox="0 0 128 128" fill="none" xmlns="http://www.w3.org/2000/svg">
    <path fill-rule="evenodd" clip-rule="evenodd"
        d="M64 116C92.7188 116 116 92.7188 116 64C116 35.2812 92.7188 12 64 12C35.2812 12 12 35.2812 12 64C12 92.7188 35.2812 116 64 116ZM64 128C99.3462 128 128 99.3462 128 64C128 28.6538 99.3462 0 64 0C28.6538 0 0 28.6538 0 64C0 99.3462 28.6538 128 64 128Z"
        fill="#000" />
    <path
        d="M39 44C39 41.7909 40.7909 40 43 40H85C87.2091 40 89 41.7909 89 44V48C89 50.2091 87.2091 52 85 52H43C40.7909 52 39 50.2091 39 48V44Z"
        fill="#000" />
    <path
        d="M58 44C58 41.7909 59.7909 40 62 40H66C68.2091 40 70 41.7909 70 44V86C70 88.2091 68.2091 90 66 90H62C59.7909 90 58 88.2091 58 86V44Z"
        fill="#000" />
    <style>
        path { fill: #000; }
        @media (prefers-color-scheme: dark) {
        path { fill: #FFF; }
        }
    </style>
</svg>